<svg viewBox="0 0 271 43" xmlns="http://www.w3.org/2000/svg" class="fill-current mr-2 w-56"><path d="M18.2268 30.701L27.2165 1.6701H33.3196L42.3093 30.701L52.4536 1.6701H59.7938L45.6907 42H38.9278L30.5155 14.3711H30.0206L21.5258 42H14.7629L0.659794 1.6701H8L18.2268 30.701Z" fill="black"></path> <path d="M85.7263 1.6701V8.02062H64.2005V18.7423H83.4995V24.7629H64.2005V35.567H86.3861V42H57.3551V1.6701H85.7263Z" fill="black"></path> <path d="M86.2895 42V1.6701H101.96C107.623 1.6701 111.472 2.87972 113.506 5.29897C115.32 7.33333 116.228 9.6701 116.228 12.3093C116.228 15.4983 115.238 17.8625 113.259 19.4021C112.599 19.8969 111.609 20.4467 110.29 21.0515C112.819 21.6014 114.798 22.7285 116.228 24.433C117.712 26.1375 118.454 28.2543 118.454 30.7835C118.454 33.9725 117.3 36.6392 114.991 38.7835C112.736 40.9278 109.052 42 103.939 42H86.2895ZM93.1349 18.4124H101.712C106.661 18.4124 109.135 16.7354 109.135 13.3814C109.135 11.457 108.53 10.0825 107.32 9.25773C106.166 8.37801 104.324 7.93815 101.795 7.93815H93.1349V18.4124ZM93.1349 35.732H103.774C106.413 35.732 108.365 35.3196 109.63 34.4948C110.894 33.6151 111.527 32.1306 111.527 30.0412C111.527 26.4674 108.668 24.6804 102.949 24.6804H93.1349V35.732Z" fill="black"></path> <path d="M123.636 11.8144C123.636 13.5189 124.268 14.756 125.533 15.5258C126.797 16.4605 129.492 17.4227 133.615 18.4124C137.959 19.457 141.12 20.8866 143.1 22.701C145.134 24.5155 146.151 27.1272 146.151 30.5361C146.151 34.11 144.804 36.9966 142.11 39.1959C139.471 41.3952 136.007 42.4948 131.718 42.4948C125.505 42.4948 119.897 40.2955 114.894 35.8969L119.182 30.7835C123.361 34.3574 127.595 36.1443 131.883 36.1443C134.028 36.1443 135.76 35.677 137.079 34.7423C138.399 33.7526 139.059 32.488 139.059 30.9485C139.059 29.4089 138.454 28.1993 137.244 27.3196C136.09 26.4399 134 25.6426 130.976 24.9278C125.753 23.7182 122.124 22.2887 120.09 20.6392C117.725 18.8247 116.543 16.0481 116.543 12.3093C116.543 8.68041 117.863 5.8488 120.502 3.81443C123.141 1.72509 126.523 0.680412 130.646 0.680412C136.199 0.680412 140.956 2.30241 144.914 5.54639L141.285 10.6598C140.076 9.56014 138.454 8.68041 136.419 8.02062C134.385 7.30584 132.378 6.94845 130.399 6.94845C128.364 6.94845 126.715 7.38832 125.45 8.26804C124.241 9.09279 123.636 10.2749 123.636 11.8144Z" fill="black"></path> <path d="M145.799 1.6701H152.644V42H145.799V1.6701Z" fill="black"></path> <path d="M170.225 7.85567V42H163.38V7.85567H151.174V1.6701H182.432V7.85567H170.225Z" fill="black"></path> <path d="M209.461 1.6701V8.02062H187.935V18.7423H207.234V24.7629H187.935V35.567H210.12V42H181.089V1.6701H209.461Z" fill="black"></path> <path d="M208.649 1.6701H223.33V42H216.897V7.69072H208.649V1.6701Z" fill="black"></path> <path d="M224.281 1.6701H238.961V42H232.528V7.69072H224.281V1.6701Z" fill="black"></path> <path d="M264.159 22.866C263.115 24.0756 261.658 25.1203 259.788 26C257.974 26.8797 256.022 27.3196 253.933 27.3196C250.304 27.3196 247.28 26.11 244.86 23.6907C242.441 21.2715 241.232 18.0825 241.232 14.1237C241.232 10.1649 242.524 6.97595 245.108 4.5567C247.692 2.13746 251.019 0.927834 255.087 0.927834C258.166 0.927834 260.778 1.56014 262.922 2.82474C265.067 4.03436 266.661 5.71134 267.706 7.85567C268.75 9.94502 269.493 12.0344 269.933 14.1237C270.372 16.1581 270.592 18.3574 270.592 20.7217C270.592 28.5842 268.943 34.2474 265.644 37.7113C262.62 40.9003 258.936 42.4948 254.592 42.4948C250.249 42.4948 246.29 41.1203 242.716 38.3711L246.098 33.3402C247.032 34.1649 248.214 34.8797 249.644 35.4845C251.128 36.0344 252.448 36.3093 253.603 36.3093C260.531 36.3093 264.049 31.8282 264.159 22.866ZM263.005 14.3711C263.005 12.2818 262.262 10.5223 260.778 9.09278C259.293 7.60825 257.424 6.86598 255.17 6.86598C252.915 6.86598 251.046 7.52577 249.561 8.84536C248.132 10.1649 247.417 11.8694 247.417 13.9588C247.417 16.1031 248.077 17.8625 249.397 19.2371C250.771 20.6117 252.613 21.299 254.922 21.299C257.232 21.299 259.156 20.6667 260.695 19.4021C262.235 18.0825 263.005 16.4055 263.005 14.3711Z" fill="black"></path></svg>